<svg width="532" height="290" viewBox="0 0 532 290" fill="none" xmlns="http://www.w3.org/2000/svg">
<path d="M418.339 53.4016C420.065 36.1364 437.806 14.859 448.734 2.11035" stroke="#898989" stroke-width="3" stroke-linecap="round"/>
<path d="M433.537 83.7966C454.092 63.2413 477.943 45.0899 498.126 24.9065" stroke="#898989" stroke-width="3" stroke-linecap="round"/>
<path d="M454.433 127.489C479.775 113.411 503.313 96.5395 530.42 85.6963" stroke="#898989" stroke-width="3" stroke-linecap="round"/>
<path d="M313.888 95.3369C305.973 88.2141 285.426 88.6049 276.616 87.9635C222.038 83.9896 169.673 92.768 116.805 105.794C69.0289 117.565 -24.1189 151.651 8.9452 218.205C24.5166 249.548 72.846 264.871 103.867 272.701C127.629 278.699 152.363 279.62 176.734 280.342C219.26 281.603 261.989 281.341 304.503 279.672C353.347 277.754 402.261 272.444 449.701 260.233C473.721 254.05 514.697 237.212 505.742 203.927C501.548 188.334 487.074 174.308 475.443 164.111C461.712 152.073 445.969 143.596 429.188 136.695C381.384 117.035 325.929 111.64 274.672 111.223C224.77 110.818 172.049 123.338 125.854 141.655C108.585 148.503 92.9951 158.098 78.0584 169.071C61.4348 181.283 39.9869 196.026 29.525 214.518C19.6065 232.049 26.8077 258.622 44.2727 268.545C60.4914 277.759 81.9755 280.38 99.9119 283.023C130.056 287.465 160.329 289.103 190.744 287.246C241.411 284.154 292.647 278.193 342.579 268.947C383.819 261.31 418.235 245.933 453.857 224.438" stroke="#898989" stroke-width="3" stroke-linecap="round"/>
</svg>
