<svg width="217" height="239" viewBox="0 0 217 239" fill="none" xmlns="http://www.w3.org/2000/svg">
<path d="M3.54712 112.24C1.42125 109.716 1.41685 107.465 1.52862 104.224C1.95774 91.779 3.20652 79.3845 4.06616 66.9673C5.52149 45.9456 4.98835 25.4721 4.58521 4.50807C4.40998 -4.60375 8.20699 10.0622 8.85298 12.2938C14.9401 33.3221 20.6686 54.0426 28.2309 74.6377C31.1733 82.651 32.5662 91.326 36.1897 99.0908C39.1391 105.411 63.6462 93.1956 69.1783 91.2474C98.2735 81.0008 127.093 70.9063 157.417 65.0641C166.919 63.2334 174.8 62.3461 184.177 63.4493C184.28 63.4614 162.166 84.3645 159.839 86.3452C145.016 98.9667 130.07 112.98 117.162 127.581C106.601 139.526 104.583 140.624 117.162 151.919C136.291 169.096 156.635 184.621 176.795 200.537C189.055 210.215 203.286 220.249 213.013 232.66C213.616 233.429 215.623 235.425 213.878 235.774C203.71 237.808 192.624 236.446 182.447 235.659C154.891 233.528 127.62 228.861 100.091 226.431" stroke="#898989" stroke-width="3" stroke-linecap="round"/>
</svg>
