<svg width="29" height="165" viewBox="0 0 29 165" fill="none" xmlns="http://www.w3.org/2000/svg">
<path d="M6.5506 6.27588C6.30874 9.17824 5.30019 11.9756 4.74579 14.8187C0.994522 34.056 1.6153 53.8168 3.4824 73.2346C5.54098 94.6437 9.61891 115.83 10.8822 137.306" stroke="#898989" stroke-width="3" stroke-linecap="round"/>
<path d="M4.62378 6.85748C8.30139 6.12195 11.6622 3.00555 15.4971 2.13178C21.262 0.818241 17.3188 9.70109 16.5426 12.0432C13.7229 20.551 11.3607 28.9285 9.76769 37.7627C7.94373 47.8774 7.80213 58.1185 7.80213 68.3752C7.80213 83.9622 9.40751 99.4905 11.7751 114.879" stroke="#898989" stroke-width="3" stroke-linecap="round"/>
<path d="M16.2914 154.4C14.2076 155.38 14.0079 156.187 14.6395 158.854C16.2328 165.581 22.7136 162.375 25.0737 158.143C26.8651 154.93 28.3415 150.724 23.61 150.343C17.5252 149.854 16.7806 154.766 18.1733 159.293" stroke="#898989" stroke-width="3" stroke-linecap="round"/>
</svg>
