<svg width="423" height="752" viewBox="0 0 423 752" fill="none" xmlns="http://www.w3.org/2000/svg">
<path d="M400.672 18.2827C399.202 5.05127 358.714 11.3517 352.476 12.5235C281.673 25.8235 217.969 76.6069 167.726 125.283C139.171 152.949 115.672 184.916 92.7807 217.279C63.3647 258.867 40.2036 301.112 25.7917 350.196C18.5783 374.764 13.8872 400.121 12.2273 425.672C11.1119 442.841 5.434 471.074 18.1381 485.69C38.615 509.247 66.5665 490.45 92.0229 495.541C102.998 497.736 114.703 504.445 119.076 515.243C129.566 541.144 128.75 572.455 132.565 599.813C135.039 617.554 140.109 633.54 150.903 648.085C166.541 669.154 187.088 675.927 212.057 680.897C241.773 686.812 272.088 687.682 302.159 690.748C328.945 693.48 355.197 697.864 381.576 703.025" stroke="#F6E10E" stroke-width="20" stroke-linecap="round"/>
<g filter="url(#filter0_d_1492_163)">
<path d="M413.085 53.6062C411.615 40.3748 371.127 46.6752 364.889 47.847C294.086 61.147 230.382 111.93 180.14 160.607C151.584 188.272 128.085 220.239 105.194 252.603C75.7778 294.191 52.6167 336.436 38.2048 385.52C30.9914 410.087 26.3003 435.444 24.6403 460.996C23.525 478.165 17.8471 506.398 30.5512 521.013C51.0281 544.571 78.9795 525.773 104.436 530.864C115.411 533.06 127.116 539.769 131.489 550.567C141.979 576.467 141.163 607.779 144.978 635.137C147.452 652.878 152.522 668.864 163.317 683.408C178.954 704.478 199.501 711.25 224.47 716.221C254.186 722.135 284.501 723.006 314.572 726.072C341.358 728.803 367.61 733.187 393.989 738.348" stroke="#F6E10E" stroke-width="10" stroke-linecap="round"/>
</g>
<defs>
<filter id="filter0_d_1492_163" x="13.4131" y="40.3235" width="408.673" height="711.026" filterUnits="userSpaceOnUse" color-interpolation-filters="sRGB">
<feFlood flood-opacity="0" result="BackgroundImageFix"/>
<feColorMatrix in="SourceAlpha" type="matrix" values="0 0 0 0 0 0 0 0 0 0 0 0 0 0 0 0 0 0 127 0" result="hardAlpha"/>
<feOffset dy="4"/>
<feGaussianBlur stdDeviation="2"/>
<feComposite in2="hardAlpha" operator="out"/>
<feColorMatrix type="matrix" values="0 0 0 0 0 0 0 0 0 0 0 0 0 0 0 0 0 0 0.25 0"/>
<feBlend mode="normal" in2="BackgroundImageFix" result="effect1_dropShadow_1492_163"/>
<feBlend mode="normal" in="SourceGraphic" in2="effect1_dropShadow_1492_163" result="shape"/>
</filter>
</defs>
</svg>
