<svg width="70" height="66" viewBox="0 0 70 66" fill="none" xmlns="http://www.w3.org/2000/svg">
<path d="M35.7902 12.5801C35.7902 26.6318 45.3023 67.3154 39.5633 54.557C35.9029 46.4196 35.9244 34.8129 35.7902 26.0649C35.7513 23.5315 37.4221 9.69694 34.8575 17.104C33.3248 21.5306 30.3078 28.2971 27.0567 31.6328C23.6825 35.0948 29.3407 22.1176 30.7875 17.452C31.2756 15.8781 32.6435 8.61608 35.1966 11.7971C39.8012 17.5339 43.7072 23.7996 48 29.8058" stroke="white" stroke-linecap="round"/>
<path d="M10.8373 45.4211C18.1466 61.1236 33.2751 67.2763 47.9707 62.4257C55.6915 59.8773 63.431 54.807 66.6336 46.0012C70.2286 36.1164 70.122 24.5736 63.5552 16.4878C50.1074 -0.0705148 24.2327 -5.40664 8.72086 10.7229C1.44713 18.2863 -0.652855 26.1964 2.27542 36.9731C5.90405 50.3273 15.1813 57.235 24.6901 65" stroke="white" stroke-linecap="round"/>
</svg>
