<svg width="251" height="158" viewBox="0 0 251 158" fill="none" xmlns="http://www.w3.org/2000/svg">
<path d="M223.128 41.5069C228.918 36.4175 204.471 29.2344 202.153 28.6715C186.954 24.9807 170.523 25.1342 155.073 24.9916C135.314 24.8091 115.385 24.9306 96.1634 28.5701C62.081 35.0232 30.0216 47.047 11.247 73.7563C6.24992 80.8653 4.00149 88.9933 4.79659 97.5083C5.80294 108.286 11.603 115.17 22.686 120.148C36.1191 126.182 51.3727 130.149 66.1861 131.534C93.0437 134.045 121.48 132.255 147.84 128.904C162.469 127.044 177.098 123.698 190.784 119.073C205.102 114.234 221.811 107.959 232.535 98.0936C237.985 93.0797 242.389 85.4557 243.423 78.4726C245.599 63.7853 220.532 60.882 209.326 58.9979C188.159 55.439 167.744 55.4635 147.127 59.7048C123.796 64.5042 101.587 71.8693 79.3606 79.2879" stroke="#F6E10E" stroke-linecap="round"/>
</svg>
