<svg width="1291" height="148" viewBox="0 0 1291 148" fill="none" xmlns="http://www.w3.org/2000/svg">
<mask id="path-1-outside-1_120_2203" maskUnits="userSpaceOnUse" x="-20" y="-1" width="1312" height="150" fill="black">
<rect fill="white" x="-20" y="-1" width="1312" height="150"/>
<path d="M145.2 3.04C144.333 29.3867 143.9 53.0467 143.9 74.02C143.9 94.9933 144.333 118.653 145.2 145H88.78V97.68H37.82V145H-18.6C-17.7333 125.24 -17.3 101.58 -17.3 74.02C-17.3 46.46 -17.7333 22.8 -18.6 3.04H37.82V50.36H88.78V3.04H145.2ZM303.53 80H218.77C220.157 87.6267 223.537 93.8667 228.91 98.72C234.457 103.4 242.257 105.74 252.31 105.74C259.59 105.74 266.437 104.353 272.85 101.58C279.263 98.6333 284.377 94.56 288.19 89.36C299.803 95.08 315.23 101.233 334.47 107.82C329.097 119.953 319.303 129.66 305.09 136.94C291.05 144.047 272.677 147.6 249.97 147.6C220.503 147.6 198.663 140.84 184.45 127.32C170.41 113.627 163.39 95.6867 163.39 73.5C163.39 51.8333 170.41 34.24 184.45 20.72C198.49 7.19999 220.33 0.439986 249.97 0.439986C267.65 0.439986 282.99 3.38666 295.99 9.28C308.99 15.1733 318.957 23.4067 325.89 33.98C332.823 44.38 336.29 56.34 336.29 69.86C336.29 74.3667 336.117 77.7467 335.77 80H303.53ZM253.61 39.7C244.943 39.7 237.837 41.3467 232.29 44.64C226.743 47.9333 222.843 52.44 220.59 58.16H281.95C279.87 52.6133 276.49 48.1933 271.81 44.9C267.13 41.4333 261.063 39.7 253.61 39.7ZM479.499 101.32C493.712 100.973 507.839 100.453 521.879 99.76C539.212 99.0667 551.952 98.6333 560.099 98.46C558.712 107.647 558.019 123.16 558.019 145H407.999V101.32C415.452 97.16 423.512 92.0467 432.179 85.98C440.846 79.9133 452.026 71.94 465.719 62.06C472.999 56.5133 479.066 52.0933 483.919 48.8C472.132 48.9733 456.186 49.58 436.079 50.62C422.386 51.3133 413.026 51.7467 407.999 51.92C407.999 29.04 407.479 12.7467 406.439 3.04H558.019V46.72C547.272 53.8267 534.706 62.58 520.319 72.98C499.346 87.8867 485.739 97.3333 479.499 101.32ZM580.873 3.3H748.833V146.3H691.893V52.18H637.813V146.3H580.873V3.3ZM936.185 101.84C936.185 107.733 936.878 111.893 938.265 114.32C939.652 116.747 942.425 118.48 946.585 119.52L945.545 143.96C939.998 144.827 935.145 145.433 930.985 145.78C926.998 146.127 921.625 146.3 914.865 146.3C899.958 146.3 890.078 143.007 885.225 136.42C880.372 129.66 877.945 121.08 877.945 110.68V104.18C872.918 118.393 865.552 128.967 855.845 135.9C846.312 142.833 834.092 146.3 819.185 146.3C801.852 146.3 788.765 142.833 779.925 135.9C771.258 128.967 766.925 118.653 766.925 104.96C766.925 93.6933 770.652 84.8533 778.105 78.44C785.558 72.0267 797.085 67.6067 812.685 65.18C799.512 55.82 786.338 47.6733 773.165 40.74C783.565 27.5667 795.438 17.6 808.785 10.84C822.132 3.90665 838.338 0.439986 857.405 0.439986C884.098 0.439986 903.858 6.24666 916.685 17.86C929.685 29.3 936.185 46.98 936.185 70.9V101.84ZM862.865 46.2C854.025 46.2 846.225 47.6733 839.465 50.62C832.705 53.5667 826.638 57.9867 821.265 63.88C831.665 62.6667 844.665 62.06 860.265 62.06C866.678 62.06 871.185 61.28 873.785 59.72C876.385 58.16 877.685 56.1667 877.685 53.74C877.685 51.66 876.385 49.9267 873.785 48.54C871.185 46.98 867.545 46.2 862.865 46.2ZM835.565 103.92C845.272 103.92 854.025 102.1 861.825 98.46C869.625 94.6467 874.998 89.7067 877.945 83.64V76.88C873.785 78.96 869.192 80.6067 864.165 81.82C859.138 82.86 853.072 83.9 845.965 84.94L836.605 86.5C826.898 88.4067 822.045 91.7 822.045 96.38C822.045 101.407 826.552 103.92 835.565 103.92ZM1120.06 51.92C1094.06 51.2267 1075.17 50.7933 1063.38 50.62V145H1008.26V50.62C996.647 50.7933 977.84 51.2267 951.84 51.92V3.04H1120.06V51.92ZM1220.8 34.76C1246.63 34.76 1264.65 39.8733 1274.88 50.1C1285.11 60.1533 1290.22 74.1933 1290.22 92.22C1290.22 109.033 1285.11 122.033 1274.88 131.22C1264.83 140.233 1246.8 144.74 1220.8 144.74H1186.22V145H1130.58C1131.45 125.24 1131.88 101.58 1131.88 74.02C1131.88 46.46 1131.45 22.8 1130.58 3.04H1186.22V34.76H1220.8ZM1205.2 103.4C1217.51 103.4 1226.09 102.447 1230.94 100.54C1235.79 98.6333 1238.22 94.9067 1238.22 89.36C1238.22 83.8133 1235.71 80.0867 1230.68 78.18C1225.65 76.1 1217.16 75.06 1205.2 75.06L1186.22 75.32V103.4H1205.2Z"/>
</mask>
<path d="M145.2 3.03999L146.199 3.07288L146.233 2.03999H145.2V3.03999ZM145.2 145V146H146.233L146.199 144.967L145.2 145ZM88.78 145H87.78V146H88.78V145ZM88.78 97.68H89.78V96.68H88.78V97.68ZM37.82 97.68V96.68H36.82V97.68H37.82ZM37.82 145V146H38.82V145H37.82ZM-18.6 145L-19.599 144.956L-19.6448 146H-18.6V145ZM-18.6 3.03999V2.03999H-19.6448L-19.599 3.08382L-18.6 3.03999ZM37.82 3.03999H38.82V2.03999H37.82V3.03999ZM37.82 50.36H36.82V51.36H37.82V50.36ZM88.78 50.36V51.36H89.78V50.36H88.78ZM88.78 3.03999V2.03999H87.78V3.03999H88.78ZM144.201 3.00713C143.334 29.3621 142.9 53.0333 142.9 74.02H144.9C144.9 53.06 145.333 29.4112 146.199 3.07288L144.201 3.00713ZM142.9 74.02C142.9 95.0067 143.334 118.678 144.201 145.033L146.199 144.967C145.333 118.629 144.9 94.98 144.9 74.02H142.9ZM145.2 144H88.78V146H145.2V144ZM89.78 145V97.68H87.78V145H89.78ZM88.78 96.68H37.82V98.68H88.78V96.68ZM36.82 97.68V145H38.82V97.68H36.82ZM37.82 144H-18.6V146H37.82V144ZM-17.601 145.044C-16.7335 125.265 -16.3 101.589 -16.3 74.02H-18.3C-18.3 101.571 -18.7332 125.215 -19.599 144.956L-17.601 145.044ZM-16.3 74.02C-16.3 46.4506 -16.7335 22.7752 -17.601 2.99619L-19.599 3.08382C-18.7332 22.8248 -18.3 46.4694 -18.3 74.02H-16.3ZM-18.6 4.03999H37.82V2.03999H-18.6V4.03999ZM36.82 3.03999V50.36H38.82V3.03999H36.82ZM37.82 51.36H88.78V49.36H37.82V51.36ZM89.78 50.36V3.03999H87.78V50.36H89.78ZM88.78 4.03999H145.2V2.03999H88.78V4.03999ZM218.77 80V79H217.572L217.786 80.1789L218.77 80ZM228.91 98.72L228.24 99.4621L228.252 99.4734L228.265 99.4843L228.91 98.72ZM272.85 101.58L273.247 102.498L273.257 102.493L273.267 102.489L272.85 101.58ZM288.19 89.36L288.632 88.4629L287.879 88.0924L287.383 88.7686L288.19 89.36ZM334.47 107.82L335.384 108.225L335.826 107.227L334.794 106.874L334.47 107.82ZM305.09 136.94L305.541 137.832L305.546 137.83L305.09 136.94ZM184.45 127.32L183.752 128.036L183.761 128.045L184.45 127.32ZM184.45 20.72L185.143 21.4403L184.45 20.72ZM295.99 9.28L295.577 10.1908L295.99 9.28ZM325.89 33.98L325.054 34.5284L325.058 34.5347L325.89 33.98ZM335.77 80V81H336.628L336.758 80.1521L335.77 80ZM232.29 44.64L232.8 45.4998L232.29 44.64ZM220.59 58.16L219.659 57.7935L219.121 59.16H220.59V58.16ZM281.95 58.16V59.16H283.393L282.886 57.8089L281.95 58.16ZM271.81 44.9L271.215 45.7036L271.224 45.7108L271.234 45.7178L271.81 44.9ZM303.53 79H218.77V81H303.53V79ZM217.786 80.1789C219.209 88.0064 222.69 94.45 228.24 99.4621L229.58 97.9779C224.383 93.2833 221.104 87.2469 219.754 79.8211L217.786 80.1789ZM228.265 99.4843C234.051 104.366 242.111 106.74 252.31 106.74V104.74C242.402 104.74 234.862 102.434 229.555 97.9557L228.265 99.4843ZM252.31 106.74C259.721 106.74 266.703 105.328 273.247 102.498L272.453 100.662C266.17 103.379 259.459 104.74 252.31 104.74V106.74ZM273.267 102.489C279.82 99.4779 285.073 95.3012 288.996 89.9514L287.383 88.7686C283.68 93.8188 278.706 97.7888 272.432 100.671L273.267 102.489ZM287.748 90.2571C299.415 96.0034 314.886 102.172 334.146 108.766L334.794 106.874C315.574 100.294 300.192 94.1566 288.632 88.4629L287.748 90.2571ZM333.556 107.415C328.293 119.299 318.686 128.852 304.634 136.05L305.546 137.83C319.92 130.468 329.9 120.608 335.384 108.225L333.556 107.415ZM304.638 136.048C290.786 143.059 272.584 146.6 249.97 146.6V148.6C272.769 148.6 291.313 145.034 305.541 137.832L304.638 136.048ZM249.97 146.6C220.633 146.6 199.092 139.867 185.139 126.595L183.761 128.045C198.235 141.813 220.373 148.6 249.97 148.6V146.6ZM185.148 126.604C171.327 113.124 164.39 95.4558 164.39 73.5H162.39C162.39 95.9175 169.493 114.129 183.752 128.036L185.148 126.604ZM164.39 73.5C164.39 52.0717 171.322 34.7498 185.143 21.4403L183.756 19.9997C169.498 33.7302 162.39 51.595 162.39 73.5H164.39ZM185.143 21.4403C198.92 8.17398 220.457 1.43999 249.97 1.43999V-0.560013C220.203 -0.560013 198.06 6.226 183.756 19.9997L185.143 21.4403ZM249.97 1.43999C267.541 1.43999 282.734 4.36852 295.577 10.1908L296.403 8.36922C283.246 2.4048 267.759 -0.560013 249.97 -0.560013V1.43999ZM295.577 10.1908C308.427 16.0162 318.237 24.1333 325.054 34.5284L326.726 33.4316C319.676 22.68 309.552 14.3304 296.403 8.36922L295.577 10.1908ZM325.058 34.5347C331.873 44.7569 335.29 56.5206 335.29 69.86H337.29C337.29 56.1594 333.774 44.0031 326.722 33.4253L325.058 34.5347ZM335.29 69.86C335.29 74.3548 335.116 77.6726 334.781 79.8479L336.758 80.1521C337.117 77.8207 337.29 74.3785 337.29 69.86H335.29ZM335.77 79H303.53V81H335.77V79ZM253.61 38.7C244.823 38.7 237.525 40.3688 231.779 43.7801L232.8 45.4998C238.148 42.3246 245.063 40.7 253.61 40.7V38.7ZM231.779 43.7801C226.052 47.1808 221.998 51.8563 219.659 57.7935L221.52 58.5265C223.688 53.0237 227.434 48.6859 232.8 45.4998L231.779 43.7801ZM220.59 59.16H281.95V57.16H220.59V59.16ZM282.886 57.8089C280.738 52.0809 277.236 47.4955 272.385 44.0822L271.234 45.7178C275.744 48.8911 279.001 53.1457 281.014 58.5111L282.886 57.8089ZM272.405 44.0964C267.51 40.4704 261.217 38.7 253.61 38.7V40.7C260.909 40.7 266.75 42.3962 271.215 45.7036L272.405 44.0964ZM479.499 101.32L478.961 100.477L475.94 102.407L479.523 102.32L479.499 101.32ZM521.879 99.76L521.839 98.7608L521.83 98.7612L521.879 99.76ZM560.099 98.46L561.088 98.6093L561.265 97.435L560.078 97.4602L560.099 98.46ZM558.019 145V146H559.019V145H558.019ZM407.999 145H406.999V146H407.999V145ZM407.999 101.32L407.512 100.447L406.999 100.733V101.32H407.999ZM432.179 85.98L432.753 86.7992L432.179 85.98ZM465.719 62.06L466.304 62.8709L466.315 62.8633L466.325 62.8554L465.719 62.06ZM483.919 48.8L484.481 49.6275L487.246 47.751L483.904 47.8001L483.919 48.8ZM436.079 50.62L436.13 51.6187L436.131 51.6187L436.079 50.62ZM407.999 51.92H406.999V52.9551L408.034 52.9194L407.999 51.92ZM406.439 3.03999V2.03999H405.326L405.445 3.14653L406.439 3.03999ZM558.019 3.03999H559.019V2.03999H558.019V3.03999ZM558.019 46.72L558.571 47.5541L559.019 47.2576V46.72H558.019ZM520.319 72.98L520.898 73.7951L520.905 73.7904L520.319 72.98ZM479.523 102.32C493.745 101.973 507.88 101.453 521.928 100.759L521.83 98.7612C507.798 99.4541 493.68 99.9738 479.475 100.32L479.523 102.32ZM521.919 100.759C539.251 100.066 551.984 99.6329 560.12 99.4598L560.078 97.4602C551.921 97.6338 539.173 98.0674 521.839 98.7608L521.919 100.759ZM559.11 98.3107C557.711 107.579 557.019 123.159 557.019 145H559.019C559.019 123.161 559.714 107.715 561.088 98.6093L559.11 98.3107ZM558.019 144H407.999V146H558.019V144ZM408.999 145V101.32H406.999V145H408.999ZM408.486 102.193C415.975 98.0133 424.064 92.881 432.753 86.7992L431.606 85.1608C422.96 91.2124 414.929 96.3067 407.512 100.447L408.486 102.193ZM432.753 86.7992C441.425 80.7287 452.609 72.7523 466.304 62.8709L465.134 61.2491C451.443 71.1277 440.267 79.0979 431.606 85.1608L432.753 86.7992ZM466.325 62.8554C473.598 57.3145 479.648 52.9065 484.481 49.6275L483.358 47.9725C478.483 51.2801 472.401 55.7122 465.113 61.2646L466.325 62.8554ZM483.904 47.8001C472.1 47.9737 456.139 48.5811 436.027 49.6213L436.131 51.6187C456.232 50.5789 472.165 49.973 483.934 49.7999L483.904 47.8001ZM436.029 49.6213C422.334 50.3147 412.982 50.7476 407.965 50.9206L408.034 52.9194C413.069 52.7457 422.437 52.312 436.13 51.6187L436.029 49.6213ZM408.999 51.92C408.999 29.0388 408.48 12.6983 407.433 2.93347L405.445 3.14653C406.479 12.795 406.999 29.0412 406.999 51.92H408.999ZM406.439 4.03999H558.019V2.03999H406.439V4.03999ZM557.019 3.03999V46.72H559.019V3.03999H557.019ZM557.467 45.8859C546.706 53.0024 534.127 61.7642 519.733 72.1696L520.905 73.7904C535.284 63.3958 547.839 54.6509 558.571 47.5541L557.467 45.8859ZM519.74 72.1649C498.761 87.0755 485.176 96.5066 478.961 100.477L480.037 102.163C486.302 98.1601 499.931 88.6978 520.898 73.7951L519.74 72.1649ZM580.873 3.3V2.3H579.873V3.3H580.873ZM748.833 3.3H749.833V2.3H748.833V3.3ZM748.833 146.3V147.3H749.833V146.3H748.833ZM691.893 146.3H690.893V147.3H691.893V146.3ZM691.893 52.18H692.893V51.18H691.893V52.18ZM637.813 52.18V51.18H636.813V52.18H637.813ZM637.813 146.3V147.3H638.813V146.3H637.813ZM580.873 146.3H579.873V147.3H580.873V146.3ZM580.873 4.3H748.833V2.3H580.873V4.3ZM747.833 3.3V146.3H749.833V3.3H747.833ZM748.833 145.3H691.893V147.3H748.833V145.3ZM692.893 146.3V52.18H690.893V146.3H692.893ZM691.893 51.18H637.813V53.18H691.893V51.18ZM636.813 52.18V146.3H638.813V52.18H636.813ZM637.813 145.3H580.873V147.3H637.813V145.3ZM581.873 146.3V3.3H579.873V146.3H581.873ZM938.265 114.32L937.397 114.816H937.397L938.265 114.32ZM946.585 119.52L947.584 119.562L947.619 118.748L946.828 118.55L946.585 119.52ZM945.545 143.96L945.699 144.948L946.509 144.821L946.544 144.003L945.545 143.96ZM930.985 145.78L930.902 144.783L930.898 144.784L930.985 145.78ZM885.225 136.42L884.413 137.003L884.42 137.013L885.225 136.42ZM877.945 104.18H878.945L877.002 103.847L877.945 104.18ZM855.845 135.9L855.264 135.086L855.257 135.091L855.845 135.9ZM779.925 135.9L779.3 136.681L779.308 136.687L779.925 135.9ZM778.105 78.44L778.757 79.198L778.105 78.44ZM812.685 65.18L812.839 66.1681L815.27 65.7899L813.264 64.3648L812.685 65.18ZM773.165 40.74L772.38 40.1203L771.635 41.0646L772.699 41.6249L773.165 40.74ZM808.785 10.84L809.237 11.7321L809.246 11.7274L808.785 10.84ZM916.685 17.86L916.014 18.6014L916.024 18.6107L916.685 17.86ZM839.465 50.62L839.865 51.5367L839.465 50.62ZM821.265 63.88L820.526 63.2062L818.723 65.1833L821.381 64.8733L821.265 63.88ZM873.785 59.72L873.271 58.8625L873.785 59.72ZM873.785 48.54L873.271 49.3975L873.292 49.4105L873.314 49.4223L873.785 48.54ZM861.825 98.46L862.248 99.3662L862.256 99.3624L862.264 99.3584L861.825 98.46ZM877.945 83.64L878.844 84.0769L878.945 83.87V83.64H877.945ZM877.945 76.88H878.945V75.262L877.498 75.9856L877.945 76.88ZM864.165 81.82L864.368 82.7993L864.384 82.7959L864.4 82.7921L864.165 81.82ZM845.965 84.94L845.82 83.9505L845.81 83.952L845.801 83.9536L845.965 84.94ZM836.605 86.5L836.441 85.5136L836.426 85.516L836.412 85.5188L836.605 86.5ZM935.185 101.84C935.185 107.754 935.871 112.146 937.397 114.816L939.133 113.824C937.886 111.641 937.185 107.713 937.185 101.84H935.185ZM937.397 114.816C938.976 117.58 942.057 119.419 946.342 120.49L946.828 118.55C942.793 117.541 940.327 115.913 939.133 113.824L937.397 114.816ZM945.586 119.477L944.546 143.917L946.544 144.003L947.584 119.562L945.586 119.477ZM945.391 142.972C939.86 143.836 935.032 144.439 930.902 144.783L931.068 146.777C935.258 146.427 940.137 145.817 945.699 144.948L945.391 142.972ZM930.898 144.784C926.953 145.127 921.613 145.3 914.865 145.3V147.3C921.637 147.3 927.043 147.127 931.072 146.776L930.898 144.784ZM914.865 145.3C900.027 145.3 890.585 142.008 886.03 135.827L884.42 137.013C889.572 144.005 899.89 147.3 914.865 147.3V145.3ZM886.037 135.837C881.334 129.285 878.945 120.924 878.945 110.68H876.945C876.945 121.236 879.41 130.035 884.413 137.003L886.037 135.837ZM878.945 110.68V104.18H876.945V110.68H878.945ZM877.002 103.847C872.026 117.918 864.764 128.3 855.264 135.086L856.426 136.714C866.339 129.633 873.811 118.869 878.888 104.513L877.002 103.847ZM855.257 135.091C845.935 141.871 833.937 145.3 819.185 145.3V147.3C834.247 147.3 846.688 143.796 856.433 136.709L855.257 135.091ZM819.185 145.3C801.961 145.3 789.133 141.851 780.542 135.113L779.308 136.687C788.397 143.815 801.743 147.3 819.185 147.3V145.3ZM780.55 135.119C772.175 128.42 767.925 118.428 767.925 104.96H765.925C765.925 118.879 770.341 129.514 779.3 136.681L780.55 135.119ZM767.925 104.96C767.925 93.9373 771.558 85.3926 778.757 79.198L777.453 77.682C769.745 84.3141 765.925 93.4493 765.925 104.96H767.925ZM778.757 79.198C786.008 72.9593 797.322 68.5818 812.839 66.1681L812.531 64.1919C796.848 66.6315 785.109 71.094 777.453 77.682L778.757 79.198ZM813.264 64.3648C800.058 54.9812 786.847 46.8108 773.631 39.8551L772.699 41.6249C785.83 48.5359 798.966 56.6588 812.106 65.9952L813.264 64.3648ZM773.95 41.3596C784.271 28.2863 796.035 18.4189 809.237 11.7321L808.333 9.94789C794.842 16.7811 782.859 26.847 772.38 40.1203L773.95 41.3596ZM809.246 11.7274C822.417 4.88519 838.457 1.43999 857.405 1.43999V-0.560013C838.22 -0.560013 821.846 2.92812 808.324 9.95259L809.246 11.7274ZM857.405 1.43999C883.98 1.43999 903.449 7.22472 916.014 18.6013L917.356 17.1187C904.268 5.2686 884.217 -0.560013 857.405 -0.560013V1.43999ZM916.024 18.6107C928.736 29.7966 935.185 47.1533 935.185 70.9H937.185C937.185 46.8067 930.634 28.8033 917.346 17.1093L916.024 18.6107ZM935.185 70.9V101.84H937.185V70.9H935.185ZM862.865 45.2C853.914 45.2 845.974 46.6919 839.065 49.7033L839.865 51.5367C846.476 48.6548 854.136 47.2 862.865 47.2V45.2ZM839.065 49.7033C832.166 52.7106 825.986 57.2175 820.526 63.2062L822.004 64.5538C827.29 58.7558 833.244 54.4227 839.865 51.5367L839.065 49.7033ZM821.381 64.8733C831.729 63.666 844.687 63.06 860.265 63.06V61.06C844.643 61.06 831.601 61.6673 821.149 62.8867L821.381 64.8733ZM860.265 63.06C866.699 63.06 871.448 62.2884 874.299 60.5775L873.271 58.8625C870.922 60.2716 866.658 61.06 860.265 61.06V63.06ZM874.299 60.5775C877.114 58.8889 878.685 56.6086 878.685 53.74H876.685C876.685 55.7247 875.656 57.4311 873.271 58.8625L874.299 60.5775ZM878.685 53.74C878.685 51.1444 877.028 49.1363 874.256 47.6576L873.314 49.4223C875.742 50.717 876.685 52.1756 876.685 53.74H878.685ZM874.299 47.6825C871.481 45.9917 867.636 45.2 862.865 45.2V47.2C867.454 47.2 870.889 47.9683 873.271 49.3975L874.299 47.6825ZM835.565 104.92C845.399 104.92 854.299 103.075 862.248 99.3662L861.402 97.5538C853.75 101.125 845.144 102.92 835.565 102.92V104.92ZM862.264 99.3584C870.207 95.4754 875.775 90.3959 878.844 84.0769L877.045 83.2031C874.221 89.0174 869.043 93.8179 861.386 97.5616L862.264 99.3584ZM878.945 83.64V76.88H876.945V83.64H878.945ZM877.498 75.9856C873.413 78.0282 868.892 79.6504 863.93 80.8479L864.4 82.7921C869.492 81.5629 874.157 79.8918 878.392 77.7744L877.498 75.9856ZM863.962 80.8407C858.961 81.8756 852.914 82.9124 845.82 83.9505L846.11 85.9295C853.229 84.8876 859.316 83.8444 864.368 82.7993L863.962 80.8407ZM845.801 83.9536L836.441 85.5136L836.769 87.4864L846.129 85.9264L845.801 83.9536ZM836.412 85.5188C831.505 86.4826 827.713 87.8156 825.123 89.5725C822.501 91.3521 821.045 93.6239 821.045 96.38H823.045C823.045 94.4561 824.016 92.7412 826.247 91.2275C828.511 89.691 831.998 88.424 836.798 87.4812L836.412 85.5188ZM821.045 96.38C821.045 97.7907 821.363 99.0729 822.032 100.192C822.7 101.309 823.685 102.21 824.938 102.908C827.414 104.289 830.998 104.92 835.565 104.92V102.92C831.119 102.92 827.943 102.294 825.912 101.162C824.912 100.604 824.207 99.9331 823.748 99.1657C823.29 98.3996 823.045 97.4826 823.045 96.38H821.045ZM1120.06 51.92L1120.03 52.9196L1121.06 52.947V51.92H1120.06ZM1063.38 50.62L1063.39 49.6201L1062.38 49.6052V50.62H1063.38ZM1063.38 145V146H1064.38V145H1063.38ZM1008.26 145H1007.26V146H1008.26V145ZM1008.26 50.62H1009.26V49.605L1008.24 49.6201L1008.26 50.62ZM951.84 51.92H950.84V52.947L951.867 52.9196L951.84 51.92ZM951.84 3.03999V2.03999H950.84V3.03999H951.84ZM1120.06 3.03999H1121.06V2.03999H1120.06V3.03999ZM1120.09 50.9203C1094.09 50.227 1075.19 49.7935 1063.39 49.6201L1063.37 51.6199C1075.15 51.7931 1094.03 52.2263 1120.03 52.9196L1120.09 50.9203ZM1062.38 50.62V145H1064.38V50.62H1062.38ZM1063.38 144H1008.26V146H1063.38V144ZM1009.26 145V50.62H1007.26V145H1009.26ZM1008.24 49.6201C996.625 49.7935 977.814 50.227 951.813 50.9203L951.867 52.9196C977.866 52.2263 996.668 51.7931 1008.27 51.6199L1008.24 49.6201ZM952.84 51.92V3.03999H950.84V51.92H952.84ZM951.84 4.03999H1120.06V2.03999H951.84V4.03999ZM1119.06 3.03999V51.92H1121.06V3.03999H1119.06ZM1274.88 50.1L1274.17 50.8071L1274.18 50.8131L1274.88 50.1ZM1274.88 131.22L1275.55 131.965L1275.55 131.964L1274.88 131.22ZM1186.22 144.74V143.74H1185.22V144.74H1186.22ZM1186.22 145V146H1187.22V145H1186.22ZM1130.58 145L1129.58 144.956L1129.53 146H1130.58V145ZM1130.58 3.03999V2.03999H1129.53L1129.58 3.08382L1130.58 3.03999ZM1186.22 3.03999H1187.22V2.03999H1186.22V3.03999ZM1186.22 34.76H1185.22V35.76H1186.22V34.76ZM1230.94 100.54L1231.31 101.471L1230.94 100.54ZM1230.68 78.18L1230.3 79.104L1230.31 79.1097L1230.33 79.115L1230.68 78.18ZM1205.2 75.06V74.0599L1205.19 74.0601L1205.2 75.06ZM1186.22 75.32L1186.21 74.3201L1185.22 74.3336V75.32H1186.22ZM1186.22 103.4H1185.22V104.4H1186.22V103.4ZM1220.8 35.76C1246.55 35.76 1264.24 40.8698 1274.17 50.8071L1275.59 49.3929C1265.07 38.8769 1246.7 33.76 1220.8 33.76V35.76ZM1274.18 50.8131C1284.17 60.6329 1289.22 74.3886 1289.22 92.22H1291.22C1291.22 73.998 1286.05 59.6738 1275.58 49.3869L1274.18 50.8131ZM1289.22 92.22C1289.22 108.818 1284.18 121.521 1274.21 130.476L1275.55 131.964C1286.03 122.546 1291.22 109.249 1291.22 92.22H1289.22ZM1274.21 130.475C1264.45 139.228 1246.75 143.74 1220.8 143.74V145.74C1246.85 145.74 1265.2 141.239 1275.55 131.965L1274.21 130.475ZM1220.8 143.74H1186.22V145.74H1220.8V143.74ZM1185.22 144.74V145H1187.22V144.74H1185.22ZM1186.22 144H1130.58V146H1186.22V144ZM1131.58 145.044C1132.45 125.265 1132.88 101.589 1132.88 74.02H1130.88C1130.88 101.571 1130.45 125.215 1129.58 144.956L1131.58 145.044ZM1132.88 74.02C1132.88 46.4506 1132.45 22.7752 1131.58 2.99619L1129.58 3.08382C1130.45 22.8248 1130.88 46.4694 1130.88 74.02H1132.88ZM1130.58 4.03999H1186.22V2.03999H1130.58V4.03999ZM1185.22 3.03999V34.76H1187.22V3.03999H1185.22ZM1186.22 35.76H1220.8V33.76H1186.22V35.76ZM1205.2 104.4C1217.51 104.4 1226.26 103.453 1231.31 101.471L1230.57 99.6093C1225.91 101.44 1217.51 102.4 1205.2 102.4V104.4ZM1231.31 101.471C1233.89 100.455 1235.89 98.927 1237.24 96.8607C1238.58 94.799 1239.22 92.2792 1239.22 89.36H1237.22C1237.22 91.9875 1236.65 94.1043 1235.56 95.7693C1234.48 97.4297 1232.84 98.7185 1230.57 99.6093L1231.31 101.471ZM1239.22 89.36C1239.22 86.4344 1238.56 83.9094 1237.16 81.8459C1235.77 79.7798 1233.7 78.2569 1231.03 77.245L1230.33 79.115C1232.68 80.0098 1234.39 81.3035 1235.51 82.9641C1236.63 84.6272 1237.22 86.739 1237.22 89.36H1239.22ZM1231.06 77.256C1225.84 75.0944 1217.17 74.06 1205.2 74.06V76.06C1217.15 76.06 1225.47 77.1056 1230.3 79.104L1231.06 77.256ZM1205.19 74.0601L1186.21 74.3201L1186.23 76.3199L1205.21 76.0599L1205.19 74.0601ZM1185.22 75.32V103.4H1187.22V75.32H1185.22ZM1186.22 104.4H1205.2V102.4H1186.22V104.4Z" fill="white" fill-opacity="0.2" mask="url(#path-1-outside-1_120_2203)"/>
</svg>
