<svg width="1440" height="75" viewBox="0 0 1440 75" fill="none" xmlns="http://www.w3.org/2000/svg">
<g filter="url(#filter0_d_120_2200)">
<path fill-rule="evenodd" clip-rule="evenodd" d="M-2.045 23.6249C-2.497 23.5313 -3.387 22.9452 -4 22.5122V0.450684H796H1596V21.908L1593.78 22.9422L1591.77 21.7166L1589.51 20.337L1587.04 21.5958L1584.02 19.757C1584.02 19.757 1580.84 19.897 1580.14 20.5032C1579.43 21.1094 1572.91 25.0931 1572.91 25.0931C1572.91 25.0931 1571.35 24.8333 1570.9 23.8676L1569.55 20.9694L1569.1 20.0037L1562.72 19.1891C1562.72 19.1891 1559.78 19.5103 1559.02 19.0511C1558.53 18.751 1559.11 18.3691 1559.09 18.3207C1559.07 18.2948 1558.88 18.3639 1558.27 18.5909C1556.5 19.2444 1556.14 22.1356 1556.14 22.1356L1550.36 18.611L1548.09 17.2324L1546.08 16.0069L1545.02 17.7792L1543.26 16.7068L1539.42 20.2444C1539.42 20.2444 1539.78 17.3533 1537.66 19.1719L1535.53 20.9906L1532.55 21.9432L1531.3 21.1769L1529.29 19.9514C1529.29 19.9514 1527.31 21.5173 1526.41 21.3108L1525.5 21.1044L1522.13 20.4317C1522.13 20.4317 1518.55 20.6714 1517.64 20.4649C1516.74 20.2585 1513.12 17.7067 1513.12 17.7067C1513.12 17.7067 1509.29 17.7933 1507.98 17.6866C1506.67 17.5799 1502.47 22.2836 1502.47 22.2836L1499.64 22.9835C1499.64 22.9835 1494.86 21.7982 1491.58 21.5314C1488.31 21.2645 1485.18 20.7449 1485.18 20.7449C1485.18 20.7449 1483.17 21.2444 1481.96 21.5444C1480.74 21.8435 1476.96 22.9965 1476.96 22.9965L1474.79 23.7498L1470.77 21.2977L1467.58 23.1637L1466.82 24.4295L1465.06 23.357L1463.05 22.1315L1460.92 25.6762L1457.91 23.8374L1455.58 24.8434L1454.08 23.924L1450.5 24.1637C1450.5 24.1637 1449.85 22.3853 1448.23 22.7851C1446.62 23.1849 1438.53 28.6348 1438.53 28.6348L1437.62 30.1533L1433.84 29.5803L1431.08 27.8946C1428.86 27.5814 1422.55 30.6528 1422.55 30.6528L1421.03 33.1844L1416.7 32.9649L1414.18 31.4322L1412.93 30.6659L1408.38 33.0847L1405.87 31.5521C1404.86 30.9388 1402.09 29.2531 1402.09 29.2531L1398.61 29.8996L1396.04 30.7525C1396.04 30.7525 1395.7 28.4676 1394.03 29.527L1392.36 30.5863L1388.34 28.1343L1386.5 27.0125C1386.5 27.0125 1384.22 25.2764 1383.31 25.07C1382.97 24.9906 1382.62 24.6591 1382.22 24.2709C1381.56 23.6442 1380.75 22.8699 1379.54 22.771C1377.58 22.6109 1376.5 20.9735 1376.5 20.9735L1368.45 22.9301C1368.45 22.9301 1365.44 21.0913 1364.68 20.6311C1363.93 20.1709 1360.41 18.026 1360.41 18.026C1360.41 18.026 1357.98 18.6261 1356.93 18.6725C1355.87 18.7198 1353.5 18.6594 1353.5 18.6594C1351.54 18.5003 1347.65 20.9715 1347.65 20.9715L1346.39 20.2051C1346.39 20.2051 1345.87 23.35 1343.51 21.5646C1341.15 19.7792 1337.81 21.8979 1337.81 21.8979L1336.9 23.4165C1336.9 23.4165 1336.38 28.2863 1334.62 27.2139L1332.86 26.1414L1331.34 28.673L1328.51 29.3729L1327.45 31.1452L1325.94 30.2258L1322.21 30.7193L1317.61 33.7977L1314.53 34.3445C1312.82 34.3385 1309.95 33.9719 1309.95 33.9719L1306.52 33.9588L1302.49 33.2328L1297.91 32.8602L1293.12 31.6739C1293.12 31.6739 1286.31 34.4381 1285.55 33.979C1284.8 33.5187 1282.03 31.833 1281.28 31.3738C1280.53 30.9146 1277.76 29.2289 1277.76 29.2289C1277.76 29.2289 1274.17 31.1936 1273.42 30.7344C1273.22 30.6151 1272.9 30.3686 1272.49 30.0671C1271.35 29.2079 1269.61 27.9021 1268.64 27.8231C1267.33 27.7164 1264.62 25.3711 1264.62 25.3711C1264.62 25.3711 1260.39 25.5584 1259.63 25.0982C1258.88 24.639 1255.6 26.0981 1255.6 26.0981C1255.6 26.0981 1254.49 26.805 1252.77 26.798C1251.06 26.792 1248.24 25.7658 1248.24 25.7658L1246.48 24.6933L1241.95 23.6612C1241.95 23.6612 1241.76 21.1235 1239.69 22.2826C1237.61 23.4416 1232.37 23.0157 1232.37 23.0157L1229.11 21.0238L1226.28 21.7237L1224.27 20.4982C1224.27 20.4982 1219.14 20.7831 1218.54 20.4166C1218.17 20.1914 1216.99 21.1439 1215.86 22.0587C1215.15 22.6291 1214.46 23.1849 1213.99 23.4316C1213.52 23.6832 1213.04 24.4369 1212.53 25.246C1211.72 26.503 1210.84 27.8935 1209.76 27.7416C1208.84 27.6117 1208.6 27.9654 1208.35 28.317C1208.13 28.6417 1207.9 28.9645 1207.15 28.9036C1206.89 28.8822 1206.54 28.8605 1206.15 28.8355C1204.21 28.7121 1201 28.508 1199.56 27.8634C1198.7 27.4762 1198.58 27.3342 1198.52 27.2632C1198.46 27.1922 1198.46 27.1922 1197.84 27.089C1196.6 26.8826 1192.79 25.938 1192.19 25.5715L1191.59 25.2049L1190.79 24.7165L1188.78 23.496L1187.18 22.5192L1185.05 22.8747L1182.72 23.1083C1182.72 23.1083 1179.19 22.6099 1177.95 22.4024C1176.7 22.196 1170.13 20.3914 1170.13 20.3914C1170.13 20.3914 1169.45 18.3271 1167.72 18.9262C1166.55 19.3325 1164.81 19.6438 1163.51 19.8765C1162.89 19.9875 1162.37 20.0807 1162.06 20.1578C1161.09 20.3965 1159.56 21.1185 1159.56 21.1185L1158.36 20.3864C1158.36 20.3864 1156.52 18.4388 1155.56 18.6775C1154.59 18.9162 1152.76 16.9686 1152.76 16.9686C1152.76 16.9686 1152.52 16.456 1151.39 16.5054C1150.27 16.5547 1147.25 17.4731 1147.25 17.4731C1147.25 17.4731 1146.16 19.2877 1145.16 18.6775L1140.76 15.9918L1135.94 15.8116C1135.94 15.8116 1133.93 15.9656 1133.21 15.8015C1132.49 15.6373 1128.71 16.9162 1128.71 16.9162L1125.26 16.741C1125.26 16.741 1124.33 17.8296 1123.73 17.463C1123.13 17.0975 1120.83 18.18 1120.83 18.18L1116.41 20.9926L1113.2 19.039L1111.2 17.8185L1109.19 19.3472C1109.19 19.3472 1107.26 19.8245 1106.89 20.4297C1106.53 21.0349 1102.88 20.7378 1102.88 20.7378C1102.88 20.7378 1103.48 19.7298 1101.88 20.1276C1100.27 20.5254 1095.42 19.4962 1095.42 19.4962L1089.43 20.8073C1089.43 20.8073 1088.95 20.2394 1086.74 20.2716C1085.68 20.2866 1084.44 20.3855 1083.32 20.4745C1082.12 20.5704 1081.06 20.6548 1080.52 20.6109C1080.14 20.5806 1079.46 20.3617 1078.64 20.1006C1077.19 19.6337 1075.31 19.0318 1074.02 19.1306C1072.27 19.2651 1069.7 17.6417 1068.14 16.658C1067.91 16.5145 1067.7 16.3846 1067.53 16.2758C1066.12 15.4208 1062.11 12.996 1062.11 12.996C1062.11 12.996 1059.03 12.1994 1057.27 11.9497C1056.34 11.8194 1054.88 11.7311 1053.58 11.6531C1052.39 11.5815 1051.35 11.5187 1051 11.4401C1050.95 11.4281 1050.89 11.4141 1050.82 11.398C1049.89 11.1932 1047.45 10.6503 1045.59 9.51877C1043.59 8.29828 1037.98 4.8805 1037.98 4.8805L1033.12 6.60047C1033.12 6.60047 1029.38 7.35371 1028.54 7.39097C1028.15 7.40804 1027.06 7.92296 1025.93 8.46015C1024.59 9.09539 1023.18 9.76178 1022.79 9.67285C1022.07 9.5087 1018.97 11.4774 1018.97 11.4774L1009.48 13.139L1002.82 13.7603L1001.97 15.1721L992.352 10.6879L991.746 11.6959L990.655 13.5105L986.918 14.2638C986.918 14.2638 987.957 15.7239 986.191 15.4742C984.425 15.2245 981.89 16.7108 981.89 16.7108L979.951 19.9373L975.656 19.7993L973.327 20.0329L969.39 20.6643L965.448 22.6703L964.721 23.8807C964.721 23.8807 961.991 23.8696 961.148 23.9069C960.305 23.9441 958.945 22.5645 958.945 22.5645L952.953 25.2502L949.448 28.3498L945.195 27.6862L943.308 27.6378L940.905 26.1726L936.478 28.9852L934.149 29.2188L932.947 28.4867L931.345 27.5099L927.74 25.3127L922.122 24.644L916.931 27.8181L903.044 26.794L898.749 26.656L896.446 30.4877L888.625 28.4767L879.713 28.2803C878.59 27.8715 872.076 30.5148 872.076 30.5148C872.076 30.5148 870.516 29.0134 866.1 29.0768C863.583 29.113 860.115 28.6597 857.42 28.3074C855.386 28.0416 853.793 27.8333 853.378 27.9359C852.413 28.1756 849.03 31.0727 849.03 31.0727C849.03 31.0727 848.002 37.3353 845.878 36.3162C843.754 35.2971 841.704 35.9769 841.704 35.9769L839.701 34.7564L836.697 32.9256L835.169 33.6476C834.167 33.0374 832.565 32.0606 832.565 32.0606C832.565 32.0606 833.16 33.8017 831.595 33.6738C830.485 33.5831 829.351 34.4484 828.513 35.0881C828.169 35.3505 827.875 35.5749 827.653 35.6798C826.888 36.0413 826.804 37.0916 826.804 37.0916C826.804 37.0916 824.195 36.8791 823.473 36.715C823.141 36.639 822.621 36.6822 822.036 36.7309C821.349 36.788 820.572 36.8526 819.9 36.7412C818.656 36.5337 817.296 35.1541 817.296 35.1541C817.296 35.1541 813.397 32.9911 811.781 32.0374C810.165 31.0838 806.774 28.9862 806.774 28.9862L803.964 27.2874L802.562 26.4324L799.958 24.8454C799.958 24.8454 798.684 23.777 797.955 23.6249C797.503 23.5313 796.613 22.9452 796 22.5122V21.908L793.785 22.9422L791.774 21.7166L789.511 20.337L787.037 21.5958L784.02 19.757C784.02 19.757 780.844 19.897 780.136 20.5032C779.428 21.1094 772.911 25.0931 772.911 25.0931C772.911 25.0931 771.35 24.8333 770.9 23.8676L770.186 22.3349L769.55 20.9694L769.1 20.0037L762.719 19.1891C762.719 19.1891 759.778 19.5103 759.024 19.0511C758.532 18.751 759.112 18.3691 759.086 18.3207C759.071 18.2948 758.884 18.3639 758.27 18.5909C756.504 19.2444 756.14 22.1356 756.14 22.1356L750.358 18.611L748.095 17.2324L746.084 16.0069L745.019 17.7792L743.259 16.7068L739.415 20.2444C739.415 20.2444 739.779 17.3533 737.655 19.1719L735.531 20.9906L732.554 21.9432L731.297 21.1769L729.286 19.9514C729.286 19.9514 727.314 21.5173 726.408 21.3108L725.502 21.1044L722.128 20.4317C722.128 20.4317 718.548 20.6714 717.642 20.4649C716.736 20.2585 713.117 17.7067 713.117 17.7067C713.117 17.7067 709.286 17.7933 707.976 17.6866C706.666 17.5799 702.465 22.2836 702.465 22.2836L699.64 22.9835C699.64 22.9835 694.857 21.7982 691.582 21.5314C688.307 21.2645 685.184 20.7449 685.184 20.7449C685.184 20.7449 683.166 21.2444 681.955 21.5444C680.744 21.8435 676.96 22.9965 676.96 22.9965L674.79 23.7498L670.767 21.2977L667.585 23.1637L666.824 24.4295L665.064 23.357L663.053 22.1315L660.923 25.6762L657.906 23.8374L655.584 24.8434L654.076 23.924L650.497 24.1637C650.497 24.1637 649.848 22.3853 648.234 22.7851C646.62 23.1849 638.535 28.6348 638.535 28.6348L637.622 30.1533L633.844 29.5803L631.079 27.8946C628.863 27.5814 622.551 30.6528 622.551 30.6528L621.029 33.1844L616.696 32.9649L614.182 31.4322L612.925 30.6659L608.38 33.0847L605.866 31.5521C604.861 30.9388 602.095 29.2531 602.095 29.2531L598.615 29.8996L596.041 30.7525C596.041 30.7525 595.697 28.4676 594.03 29.527L592.363 30.5863L588.34 28.1343L586.5 27.0125C586.5 27.0125 584.218 25.2764 583.312 25.07C582.966 24.9906 582.62 24.6591 582.215 24.2709C581.562 23.6442 580.754 22.8699 579.541 22.771C577.576 22.6109 576.499 20.9735 576.499 20.9735L568.452 22.9301C568.452 22.9301 565.435 21.0913 564.681 20.6311C563.927 20.1709 560.407 18.026 560.407 18.026C560.407 18.026 557.985 18.6261 556.927 18.6725C555.869 18.7198 553.5 18.6594 553.5 18.6594C551.535 18.5003 547.645 20.9715 547.645 20.9715L546.388 20.2051C546.388 20.2051 545.872 23.35 543.51 21.5646C541.148 19.7792 537.814 21.8979 537.814 21.8979L536.901 23.4165C536.901 23.4165 536.379 28.2863 534.619 27.2139L532.859 26.1414L531.337 28.673L528.512 29.3729L527.447 31.1452L525.938 30.2258L522.207 30.7193L517.609 33.7977L514.532 34.3445C512.818 34.3385 509.947 33.9719 509.947 33.9719L506.52 33.9588L502.491 33.2328L497.906 32.8602L493.123 31.6739C493.123 31.6739 486.308 34.4381 485.554 33.979C484.8 33.5187 482.034 31.833 481.28 31.3738C480.526 30.9146 477.76 29.2289 477.76 29.2289C477.76 29.2289 474.174 31.1936 473.42 30.7344C473.224 30.6151 472.896 30.3686 472.495 30.0671C471.351 29.2079 469.613 27.9021 468.643 27.8231C467.333 27.7164 464.621 25.3711 464.621 25.3711C464.621 25.3711 460.387 25.5584 459.633 25.0982C458.878 24.639 455.597 26.0981 455.597 26.0981C455.597 26.0981 454.486 26.805 452.772 26.798C451.058 26.792 448.24 25.7658 448.24 25.7658L446.48 24.6933L441.948 23.6612C441.948 23.6612 441.756 21.1235 439.685 22.2826C437.614 23.4416 432.374 23.0157 432.374 23.0157L429.106 21.0238L426.281 21.7237L424.27 20.4982C424.27 20.4982 419.144 20.7831 418.543 20.4166C418.173 20.1914 416.991 21.1439 415.856 22.0588C415.148 22.6291 414.458 23.1849 413.995 23.4316C413.522 23.6832 413.042 24.4369 412.526 25.246C411.724 26.503 410.837 27.8935 409.763 27.7416C408.845 27.6117 408.598 27.9654 408.352 28.317C408.126 28.6417 407.9 28.9645 407.149 28.9036C406.885 28.8822 406.543 28.8605 406.149 28.8355C404.208 28.7121 400.997 28.508 399.565 27.8634C398.703 27.4762 398.584 27.3342 398.524 27.2632C398.464 27.1922 398.464 27.1922 397.842 27.089C396.598 26.8826 392.788 25.938 392.187 25.5715L391.586 25.2049L390.785 24.7165L388.782 23.496L387.18 22.5192L385.051 22.8747L382.722 23.1083C382.722 23.1083 379.191 22.6099 377.947 22.4024C376.703 22.196 370.126 20.3914 370.126 20.3914C370.126 20.3914 369.452 18.3271 367.723 18.9262C366.553 19.3326 364.813 19.6438 363.511 19.8765C362.89 19.9875 362.369 20.0807 362.058 20.1578C361.093 20.3965 359.565 21.1185 359.565 21.1185L358.363 20.3864C358.363 20.3864 356.524 18.4388 355.559 18.6775C354.594 18.9162 352.755 16.9686 352.755 16.9686C352.755 16.9686 352.516 16.456 351.392 16.5054C350.268 16.5547 347.253 17.4731 347.253 17.4731C347.253 17.4731 346.162 19.2877 345.161 18.6775L340.755 15.9918L335.938 15.8116C335.938 15.8116 333.93 15.9656 333.208 15.8015C332.486 15.6373 328.707 16.9162 328.707 16.9162L325.255 16.741C325.255 16.741 324.328 17.8296 323.727 17.463C323.127 17.0975 320.834 18.18 320.834 18.18L316.407 20.9926L313.203 19.039L311.2 17.8185L309.187 19.3472C309.187 19.3472 307.258 19.8245 306.894 20.4297C306.53 21.0349 302.878 20.7378 302.878 20.7378C302.878 20.7378 303.484 19.7298 301.877 20.1276C300.27 20.5254 295.416 19.4962 295.416 19.4962L289.429 20.8073C289.429 20.8073 288.949 20.2394 286.741 20.2716C285.678 20.2866 284.437 20.3855 283.32 20.4745C282.117 20.5704 281.058 20.6548 280.517 20.6109C280.143 20.5806 279.459 20.3617 278.644 20.1006C277.186 19.6337 275.307 19.0318 274.019 19.1306C272.267 19.2651 269.696 17.6418 268.138 16.658C267.91 16.5145 267.704 16.3846 267.526 16.2758C266.124 15.4208 262.109 12.996 262.109 12.996C262.109 12.996 259.031 12.1994 257.265 11.9497C256.344 11.8194 254.877 11.7311 253.581 11.6531C252.393 11.5815 251.349 11.5187 251.004 11.4401C250.951 11.4281 250.888 11.4141 250.816 11.398C249.894 11.1932 247.449 10.6502 245.592 9.51877C243.59 8.29828 237.982 4.8805 237.982 4.8805L233.117 6.60047C233.117 6.60047 229.38 7.35371 228.537 7.39097C228.151 7.40804 227.063 7.92297 225.928 8.46016C224.586 9.0954 223.178 9.76178 222.787 9.67285C222.065 9.5087 218.966 11.4774 218.966 11.4774L209.485 13.139L202.818 13.7603L201.97 15.1721L192.352 10.6879L191.746 11.6959L190.655 13.5105L186.918 14.2638C186.918 14.2638 187.957 15.7239 186.191 15.4742C184.425 15.2245 181.89 16.7108 181.89 16.7108L179.951 19.9373L175.656 19.7993L173.327 20.0329L169.39 20.6643L165.448 22.6703L164.721 23.8807C164.721 23.8807 161.991 23.8696 161.148 23.9069C160.305 23.9441 158.945 22.5645 158.945 22.5645L152.953 25.2502L149.448 28.3498L145.195 27.6862L143.308 27.6378L140.905 26.1726L136.478 28.9852L134.149 29.2188L132.947 28.4867L131.345 27.5099L127.74 25.3127L122.122 24.644L116.931 27.8181L103.044 26.794L98.749 26.656L96.446 30.4877L88.625 28.4767L79.713 28.2803C78.59 27.8715 72.076 30.5148 72.076 30.5148C72.076 30.5148 70.516 29.0134 66.1 29.0768C63.583 29.113 60.1154 28.6597 57.42 28.3074C55.3865 28.0416 53.7925 27.8333 53.378 27.9359C52.413 28.1756 49.03 31.0727 49.03 31.0727C49.03 31.0727 48.002 37.3353 45.878 36.3162C43.754 35.2971 41.704 35.9769 41.704 35.9769L39.701 34.7564L36.697 32.9256L35.169 33.6476C34.167 33.0374 32.565 32.0606 32.565 32.0606C32.565 32.0606 33.16 33.8017 31.595 33.6738C30.4853 33.5831 29.3514 34.4484 28.5132 35.0881C28.1693 35.3505 27.8752 35.5749 27.653 35.6798C26.888 36.0413 26.804 37.0916 26.804 37.0916C26.804 37.0916 24.195 36.8791 23.473 36.715C23.1408 36.639 22.6211 36.6822 22.0356 36.7309C21.3489 36.788 20.5715 36.8526 19.9 36.7412C18.656 36.5337 17.296 35.1541 17.296 35.1541C17.296 35.1541 13.397 32.9911 11.781 32.0374C10.165 31.0838 6.774 28.9862 6.774 28.9862L3.964 27.2874L2.562 26.4324L-0.0420001 24.8454C-0.0420001 24.8454 -1.316 23.777 -2.045 23.6249Z" fill="white"/>
</g>
<defs>
<filter id="filter0_d_120_2200" x="-19.7" y="0.450684" width="1631.4" height="74.3409" filterUnits="userSpaceOnUse" color-interpolation-filters="sRGB">
<feFlood flood-opacity="0" result="BackgroundImageFix"/>
<feColorMatrix in="SourceAlpha" type="matrix" values="0 0 0 0 0 0 0 0 0 0 0 0 0 0 0 0 0 0 127 0" result="hardAlpha"/>
<feOffset dy="22"/>
<feGaussianBlur stdDeviation="7.85"/>
<feComposite in2="hardAlpha" operator="out"/>
<feColorMatrix type="matrix" values="0 0 0 0 0 0 0 0 0 0 0 0 0 0 0 0 0 0 0.25 0"/>
<feBlend mode="normal" in2="BackgroundImageFix" result="effect1_dropShadow_120_2200"/>
<feBlend mode="normal" in="SourceGraphic" in2="effect1_dropShadow_120_2200" result="shape"/>
</filter>
</defs>
</svg>
