<svg width="360" height="63" viewBox="0 0 360 63" fill="none" xmlns="http://www.w3.org/2000/svg">
<g filter="url(#filter0_d_184_1989)">
<path fill-rule="evenodd" clip-rule="evenodd" d="M-10.4412 15.8099C-10.7495 15.746 -11.3567 15.3462 -11.7749 15.0508V0H534H1079.77V14.6386L1078.26 15.3441L1076.89 14.508L1075.35 13.5668L1073.66 14.4256L1071.6 13.1711C1071.6 13.1711 1069.43 13.2666 1068.95 13.6802C1068.47 14.0938 1064.02 16.8115 1064.02 16.8115C1064.02 16.8115 1062.96 16.6343 1062.65 15.9755L1061.73 13.9983L1061.42 13.3394L1057.07 12.7837C1057.07 12.7837 1055.06 13.0028 1054.55 12.6895C1054.29 12.5326 1054.46 12.3428 1054.55 12.2479C1054.64 12.153 1054.64 12.153 1054.03 12.3756C1052.83 12.8214 1052.58 14.7938 1052.58 14.7938L1048.64 12.3893L1047.09 11.4488L1045.72 10.6127L1044.99 11.8219L1043.79 11.0902L1041.17 13.5036C1041.17 13.5036 1041.42 11.5313 1039.97 12.772L1038.52 14.0127L1036.49 14.6626L1035.63 14.1398L1034.26 13.3037C1034.26 13.3037 1032.92 14.372 1032.3 14.2312L1031.68 14.0903L1029.38 13.6314C1029.38 13.6314 1026.94 13.7949 1026.32 13.6541C1025.7 13.5133 1023.23 11.7724 1023.23 11.7724C1023.23 11.7724 1020.62 11.8315 1019.72 11.7587C1018.83 11.6858 1015.96 14.8948 1015.96 14.8948L1014.04 15.3723C1014.04 15.3723 1010.77 14.5637 1008.54 14.3816C1006.3 14.1996 1004.17 13.8451 1004.17 13.8451C1004.17 13.8451 1002.8 14.1858 1001.97 14.3906C1001.14 14.5946 998.563 15.3812 998.563 15.3812L997.083 15.8951L994.338 14.2222L992.168 15.4952L991.648 16.3588L990.448 15.6271L989.076 14.7911L987.623 17.2093L985.564 15.9548L983.98 16.6412L982.951 16.0139L980.51 16.1774C980.51 16.1774 980.067 14.9642 978.966 15.2369C977.865 15.5097 972.349 19.2277 972.349 19.2277L971.726 20.2637L969.149 19.8728L967.263 18.7228C965.751 18.5091 961.445 20.6044 961.445 20.6044L960.406 22.3316L957.45 22.1818L955.735 21.1362L954.878 20.6134L951.777 22.2635L950.062 21.2179C949.376 20.7996 947.489 19.6495 947.489 19.6495L945.115 20.0906L943.359 20.6725C943.359 20.6725 943.124 19.1137 941.987 19.8364L940.85 20.5591L938.105 18.8863L936.85 18.121C936.85 18.121 935.293 16.9366 934.675 16.7957C934.439 16.7416 934.203 16.5154 933.927 16.2506C933.481 15.8231 932.93 15.2948 932.102 15.2273C930.762 15.1181 930.027 14.001 930.027 14.001L924.537 15.3359C924.537 15.3359 922.479 14.0814 921.965 13.7674C921.45 13.4535 919.049 11.9902 919.049 11.9902C919.049 11.9902 917.396 12.3996 916.675 12.4312C915.953 12.4635 914.337 12.4223 914.337 12.4223C912.996 12.3138 910.342 13.9996 910.342 13.9996L909.485 13.4768C909.485 13.4768 909.133 15.6223 907.521 14.4043C905.91 13.1862 903.635 14.6317 903.635 14.6317L903.013 15.6677C903.013 15.6677 902.656 18.99 901.456 18.2583L900.255 17.5267L899.217 19.2538L897.289 19.7313L896.563 20.9404L895.533 20.3132L892.988 20.6498L889.851 22.7499L887.752 23.123C886.583 23.1189 884.624 22.8688 884.624 22.8688L882.286 22.8599L879.537 22.3645L876.409 22.1103L873.146 21.3011C873.146 21.3011 868.497 23.1869 867.983 22.8736C867.468 22.5596 865.581 21.4096 865.067 21.0963C864.552 20.7831 862.665 19.633 862.665 19.633C862.665 19.633 860.219 20.9734 859.705 20.6601C859.571 20.5787 859.347 20.4106 859.073 20.2049C858.293 19.6187 857.107 18.7279 856.446 18.674C855.552 18.6012 853.702 17.0011 853.702 17.0011C853.702 17.0011 850.813 17.1289 850.299 16.815C849.784 16.5017 847.545 17.4972 847.545 17.4972C847.545 17.4972 846.788 17.9794 845.618 17.9746C844.449 17.9705 842.526 17.2704 842.526 17.2704L841.326 16.5388L838.234 15.8346C838.234 15.8346 838.103 14.1034 836.69 14.8941C835.277 15.6849 831.702 15.3943 831.702 15.3943L829.473 14.0354L827.546 14.5128L826.174 13.6768C826.174 13.6768 822.677 13.8712 822.267 13.6211C822.014 13.4675 821.208 14.1173 820.433 14.7415C819.95 15.1306 819.48 15.5097 819.164 15.678C818.841 15.8496 818.513 16.3639 818.161 16.9159C817.614 17.7734 817.009 18.722 816.277 18.6183C815.65 18.5297 815.482 18.7711 815.314 19.011C815.16 19.2324 815.006 19.4527 814.493 19.4111C814.313 19.3965 814.08 19.3817 813.811 19.3646C812.487 19.2805 810.297 19.1412 809.319 18.7015C808.732 18.4373 808.65 18.3404 808.609 18.292C808.568 18.2436 808.568 18.2436 808.144 18.1732C807.295 18.0323 804.696 17.3879 804.286 17.1379L803.876 16.8878L803.33 16.5546L801.963 15.722L800.87 15.0556L799.418 15.2981L797.829 15.4575C797.829 15.4575 795.42 15.1174 794.571 14.9759C793.722 14.835 789.236 13.6039 789.236 13.6039C789.236 13.6039 788.776 12.1956 787.596 12.6044C786.798 12.8816 785.611 13.0939 784.723 13.2527C784.299 13.3284 783.944 13.392 783.731 13.4446C783.073 13.6074 782.031 14.0999 782.031 14.0999L781.211 13.6005C781.211 13.6005 779.956 12.2718 779.298 12.4347C778.639 12.5975 777.385 11.2688 777.385 11.2688C777.385 11.2688 777.222 10.9192 776.455 10.9528C775.688 10.9865 773.631 11.613 773.631 11.613C773.631 11.613 772.887 12.851 772.204 12.4347L769.198 10.6024L765.912 10.4795C765.912 10.4795 764.542 10.5846 764.049 10.4726C763.557 10.3606 760.979 11.2331 760.979 11.2331L758.624 11.1136C758.624 11.1136 757.991 11.8562 757.581 11.6061C757.172 11.3568 755.608 12.0953 755.608 12.0953L752.587 14.0141L750.402 12.6813L749.035 11.8487L747.662 12.8915C747.662 12.8915 746.346 13.2172 746.098 13.63C745.849 14.0429 743.358 13.8403 743.358 13.8403C743.358 13.8403 743.771 13.1526 742.675 13.4239C741.578 13.6953 738.267 12.9932 738.267 12.9932L734.183 13.8877C734.183 13.8877 733.855 13.5002 732.349 13.5222C731.623 13.5324 730.777 13.5999 730.015 13.6606C729.194 13.726 728.471 13.7836 728.103 13.7537C727.847 13.733 727.381 13.5837 726.825 13.4055C725.83 13.087 724.548 12.6764 723.67 12.7438C722.474 12.8355 720.72 11.7281 719.657 11.057C719.502 10.9591 719.362 10.8704 719.24 10.7962C718.283 10.2129 715.544 8.55863 715.544 8.55863C715.544 8.55863 713.445 8.01521 712.24 7.84483C711.612 7.75596 710.611 7.69569 709.727 7.64247C708.916 7.59366 708.204 7.55078 707.968 7.49721C707.932 7.48899 707.889 7.47943 707.84 7.46843C707.211 7.32873 705.543 6.95832 704.276 6.18642C702.91 5.35378 699.084 3.0221 699.084 3.0221L695.766 4.1955C695.766 4.1955 693.216 4.70937 692.641 4.73479C692.377 4.74644 691.635 5.09772 690.861 5.4642C689.945 5.89758 688.985 6.3522 688.718 6.29153C688.226 6.17955 686.111 7.52263 686.111 7.52263L679.643 8.65618L675.095 9.08005L674.516 10.0432L667.955 6.98403L667.541 7.67171L666.797 8.90968L664.248 9.42355C664.248 9.42355 664.956 10.4197 663.752 10.2493C662.547 10.079 660.817 11.093 660.817 11.093L659.495 13.2941L656.565 13.2L654.976 13.3594L652.29 13.7901L649.6 15.1586L649.104 15.9844C649.104 15.9844 647.242 15.9768 646.667 16.0022C646.092 16.0277 645.164 15.0865 645.164 15.0865L641.076 16.9187L638.685 19.0333L635.783 18.5806L634.496 18.5476L632.857 17.548L629.837 19.4668L628.248 19.6262L627.428 19.1267L626.335 18.4603L623.875 16.9613L620.043 16.5051L616.501 18.6705L607.027 17.9719L604.097 17.8778L602.526 20.4918L597.19 19.1198L591.11 18.9859C590.344 18.707 585.9 20.5103 585.9 20.5103C585.9 20.5103 584.836 19.486 581.823 19.5293C580.106 19.554 577.741 19.2447 575.902 19.0044C574.514 18.8231 573.427 18.6809 573.144 18.7509C572.486 18.9144 570.178 20.8909 570.178 20.8909C570.178 20.8909 569.477 25.1634 568.028 24.4681C566.579 23.7729 565.18 24.2366 565.18 24.2366L563.814 23.404L561.764 22.155L560.722 22.6476C560.038 22.2313 558.945 21.5649 558.945 21.5649C558.945 21.5649 559.351 22.7527 558.283 22.6654C557.526 22.6036 556.753 23.1939 556.181 23.6302C555.946 23.8093 555.746 23.9624 555.594 24.0339C555.072 24.2806 555.015 24.9971 555.015 24.9971C555.015 24.9971 553.235 24.8522 552.742 24.7402C552.516 24.6883 552.161 24.7178 551.762 24.751C551.293 24.79 550.763 24.8341 550.305 24.758C549.456 24.6165 548.528 23.6753 548.528 23.6753C548.528 23.6753 545.868 22.1997 544.766 21.5491C543.664 20.8985 541.35 19.4675 541.35 19.4675L539.433 18.3085L538.477 17.7252L536.7 16.6425C536.7 16.6425 535.831 15.9136 535.334 15.8099C535.025 15.746 534.418 15.3462 534 15.0508V14.6386L532.489 15.3441L531.117 14.508L529.573 13.5668L527.885 14.4256L525.827 13.1711C525.827 13.1711 523.66 13.2666 523.177 13.6802C522.694 14.0938 518.248 16.8115 518.248 16.8115C518.248 16.8115 517.183 16.6343 516.876 15.9755L515.955 13.9983L515.648 13.3394L511.295 12.7837C511.295 12.7837 509.289 13.0028 508.774 12.6895C508.439 12.4848 508.834 12.2243 508.816 12.1912C508.806 12.1736 508.679 12.2207 508.26 12.3756C507.055 12.8214 506.807 14.7938 506.807 14.7938L502.862 12.3893L501.318 11.4488L499.946 10.6127L499.22 11.8219L498.019 11.0902L495.397 13.5036C495.397 13.5036 495.645 11.5313 494.196 12.772L492.747 14.0127L490.716 14.6626L489.858 14.1398L488.486 13.3037C488.486 13.3037 487.141 14.372 486.523 14.2312L485.905 14.0903L483.603 13.6314C483.603 13.6314 481.161 13.7949 480.543 13.6541C479.925 13.5133 477.456 11.7724 477.456 11.7724C477.456 11.7724 474.842 11.8315 473.948 11.7587C473.055 11.6858 470.189 14.8948 470.189 14.8948L468.261 15.3723C468.261 15.3723 464.998 14.5637 462.764 14.3816C460.53 14.1996 458.399 13.8451 458.399 13.8451C458.399 13.8451 457.022 14.1858 456.196 14.3906C455.37 14.5946 452.789 15.3812 452.789 15.3812L451.308 15.8951L448.564 14.2222L446.393 15.4952L445.874 16.3588L444.673 15.6271L443.301 14.7911L441.848 17.2093L439.79 15.9548L438.205 16.6412L437.177 16.0139L434.735 16.1774C434.735 16.1774 434.292 14.9642 433.191 15.2369C432.09 15.5097 426.574 19.2277 426.574 19.2277L425.952 20.2637L423.374 19.8728L421.488 18.7228C419.976 18.5091 415.67 20.6044 415.67 20.6044L414.631 22.3316L411.675 22.1818L409.96 21.1362L409.103 20.6134L406.002 22.2635L404.287 21.2179C403.601 20.7996 401.714 19.6495 401.714 19.6495L399.34 20.0906L397.584 20.6725C397.584 20.6725 397.349 19.1137 396.212 19.8364L395.075 20.5591L392.33 18.8863L391.075 18.121C391.075 18.121 389.518 16.9366 388.9 16.7957C388.664 16.7416 388.428 16.5154 388.152 16.2506C387.706 15.8231 387.155 15.2948 386.328 15.2273C384.987 15.1181 384.252 14.001 384.252 14.001L378.762 15.3359C378.762 15.3359 376.704 14.0814 376.19 13.7674C375.675 13.4535 373.274 11.9902 373.274 11.9902C373.274 11.9902 371.622 12.3996 370.9 12.4312C370.178 12.4635 368.562 12.4223 368.562 12.4223C367.221 12.3138 364.568 13.9996 364.568 13.9996L363.71 13.4768C363.71 13.4768 363.358 15.6223 361.747 14.4043C360.135 13.1862 357.861 14.6317 357.861 14.6317L357.238 15.6677C357.238 15.6677 356.882 18.99 355.681 18.2583L354.48 17.5267L353.442 19.2538L351.515 19.7313L350.788 20.9404L349.759 20.3132L347.213 20.6498L344.076 22.7499L341.977 23.123C340.808 23.1189 338.849 22.8688 338.849 22.8688L336.511 22.8599L333.763 22.3645L330.635 22.1103L327.372 21.3011C327.372 21.3011 322.722 23.1869 322.208 22.8736C321.693 22.5596 319.806 21.4096 319.292 21.0963C318.778 20.7831 316.891 19.633 316.891 19.633C316.891 19.633 314.444 20.9734 313.93 20.6601C313.796 20.5787 313.572 20.4106 313.298 20.2049C312.518 19.6187 311.332 18.7279 310.671 18.674C309.777 18.6012 307.927 17.0011 307.927 17.0011C307.927 17.0011 305.038 17.1289 304.524 16.815C304.009 16.5017 301.771 17.4972 301.771 17.4972C301.771 17.4972 301.013 17.9794 299.843 17.9746C298.674 17.9705 296.752 17.2704 296.752 17.2704L295.551 16.5388L292.459 15.8346C292.459 15.8346 292.328 14.1034 290.915 14.8941C289.502 15.6849 285.927 15.3943 285.927 15.3943L283.698 14.0354L281.771 14.5128L280.399 13.6768C280.399 13.6768 276.902 13.8712 276.492 13.6211C276.239 13.4675 275.433 14.1173 274.658 14.7414C274.176 15.1305 273.705 15.5097 273.389 15.678C273.067 15.8496 272.739 16.3639 272.387 16.9158C271.84 17.7734 271.234 18.722 270.502 18.6183C269.875 18.5297 269.707 18.771 269.539 19.0109C269.385 19.2324 269.231 19.4527 268.719 19.4111C268.538 19.3965 268.305 19.3817 268.037 19.3646C266.712 19.2805 264.522 19.1412 263.545 18.7015C262.957 18.4373 262.875 18.3404 262.834 18.292C262.793 18.2436 262.793 18.2436 262.369 18.1732C261.52 18.0323 258.921 17.3879 258.511 17.1379L258.101 16.8878L257.555 16.5546L256.188 15.722L255.095 15.0556L253.643 15.2981L252.054 15.4575C252.054 15.4575 249.645 15.1174 248.796 14.9759C247.948 14.835 243.461 13.6039 243.461 13.6039C243.461 13.6039 243.001 12.1956 241.821 12.6044C241.023 12.8816 239.836 13.0939 238.948 13.2527C238.524 13.3284 238.169 13.392 237.957 13.4446C237.298 13.6074 236.256 14.0999 236.256 14.0999L235.436 13.6005C235.436 13.6005 234.181 12.2718 233.523 12.4347C232.865 12.5975 231.61 11.2688 231.61 11.2688C231.61 11.2688 231.447 10.9192 230.68 10.9528C229.913 10.9865 227.856 11.613 227.856 11.613C227.856 11.613 227.112 12.851 226.429 12.4347L223.423 10.6024L220.137 10.4795C220.137 10.4795 218.767 10.5846 218.275 10.4726C217.782 10.3606 215.204 11.2331 215.204 11.2331L212.849 11.1136C212.849 11.1136 212.217 11.8562 211.807 11.6061C211.397 11.3568 209.833 12.0953 209.833 12.0953L206.813 14.0141L204.627 12.6813L203.26 11.8487L201.887 12.8915C201.887 12.8915 200.571 13.2172 200.323 13.63C200.074 14.0429 197.583 13.8403 197.583 13.8403C197.583 13.8403 197.996 13.1526 196.9 13.4239C195.804 13.6953 192.492 12.9932 192.492 12.9932L188.408 13.8877C188.408 13.8877 188.08 13.5002 186.574 13.5222C185.849 13.5324 185.002 13.5999 184.24 13.6606C183.419 13.726 182.697 13.7836 182.328 13.7537C182.073 13.733 181.606 13.5837 181.05 13.4055C180.055 13.087 178.773 12.6764 177.895 12.7438C176.699 12.8355 174.945 11.7281 173.882 11.0569C173.727 10.959 173.587 10.8704 173.465 10.7962C172.509 10.2129 169.77 8.55863 169.77 8.55863C169.77 8.55863 167.67 8.01521 166.465 7.84483C165.837 7.75596 164.836 7.69569 163.952 7.64247C163.141 7.59366 162.429 7.55078 162.194 7.49721C162.158 7.48899 162.115 7.47943 162.065 7.46844C161.436 7.32875 159.768 6.95833 158.501 6.18642C157.136 5.35378 153.31 3.0221 153.31 3.0221L149.991 4.1955C149.991 4.1955 147.441 4.70937 146.866 4.73479C146.603 4.74644 145.86 5.09773 145.086 5.46421C144.171 5.89759 143.21 6.3522 142.943 6.29153C142.451 6.17955 140.337 7.52263 140.337 7.52263L133.869 8.65618L129.32 9.08005L128.742 10.0432L122.18 6.98403L121.767 7.67171L121.022 8.90968L118.473 9.42355C118.473 9.42355 119.182 10.4197 117.977 10.2493C116.772 10.079 115.043 11.093 115.043 11.093L113.72 13.2941L110.79 13.2L109.201 13.3594L106.515 13.7901L103.826 15.1586L103.33 15.9844C103.33 15.9844 101.467 15.9768 100.892 16.0022C100.317 16.0277 99.3892 15.0865 99.3892 15.0865L95.3013 16.9187L92.9102 19.0333L90.0087 18.5806L88.7213 18.5476L87.082 17.548L84.0618 19.4668L82.4729 19.6262L81.6529 19.1267L80.56 18.4603L78.1006 16.9613L74.2679 16.5051L70.7265 18.6705L61.2525 17.9719L58.3224 17.8778L56.7512 20.4918L51.4156 19.1198L45.3357 18.9859C44.5695 18.707 40.1255 20.5103 40.1255 20.5103C40.1255 20.5103 39.0613 19.486 36.0486 19.5293C34.3315 19.554 31.9658 19.2447 30.127 19.0044C28.7397 18.8231 27.6522 18.6809 27.3694 18.7509C26.7111 18.9144 24.4031 20.8909 24.4031 20.8909C24.4031 20.8909 23.7018 25.1634 22.2528 24.4681C20.8038 23.7729 19.4052 24.2366 19.4052 24.2366L18.0387 23.404L15.9893 22.155L14.9469 22.6476C14.2633 22.2313 13.1704 21.5649 13.1704 21.5649C13.1704 21.5649 13.5763 22.7527 12.5087 22.6654C11.7516 22.6036 10.978 23.1939 10.4062 23.6303C10.1716 23.8093 9.97098 23.9624 9.81936 24.0339C9.29746 24.2806 9.24016 24.9971 9.24016 24.9971C9.24016 24.9971 7.46025 24.8522 6.96769 24.7402C6.74102 24.6883 6.3865 24.7178 5.98709 24.751C5.51856 24.79 4.98826 24.8341 4.53012 24.758C3.68144 24.6165 2.75362 23.6753 2.75362 23.6753C2.75362 23.6753 0.0936527 22.1997 -1.00881 21.5491C-2.11128 20.8985 -4.42468 19.4675 -4.42468 19.4675L-6.34171 18.3085L-7.29818 17.7252L-9.07468 16.6425C-9.07468 16.6425 -9.94383 15.9136 -10.4412 15.8099Z" fill="white"/>
</g>
<defs>
<filter id="filter0_d_184_1989" x="-27.4749" y="0" width="1122.95" height="62.6971" filterUnits="userSpaceOnUse" color-interpolation-filters="sRGB">
<feFlood flood-opacity="0" result="BackgroundImageFix"/>
<feColorMatrix in="SourceAlpha" type="matrix" values="0 0 0 0 0 0 0 0 0 0 0 0 0 0 0 0 0 0 127 0" result="hardAlpha"/>
<feOffset dy="22"/>
<feGaussianBlur stdDeviation="7.85"/>
<feComposite in2="hardAlpha" operator="out"/>
<feColorMatrix type="matrix" values="0 0 0 0 0 0 0 0 0 0 0 0 0 0 0 0 0 0 0.25 0"/>
<feBlend mode="normal" in2="BackgroundImageFix" result="effect1_dropShadow_184_1989"/>
<feBlend mode="normal" in="SourceGraphic" in2="effect1_dropShadow_184_1989" result="shape"/>
</filter>
</defs>
</svg>
