<svg width="238" height="342" viewBox="0 0 238 342" fill="none" xmlns="http://www.w3.org/2000/svg">
<path d="M61.4248 108.732C57.1367 111.449 66.7291 100.059 69.7989 96.0186C89.1653 70.5275 109.731 45.7306 127.969 19.4004C131.113 14.8615 133.801 10.0714 136.452 5.23667C137.083 4.08694 138.488 0.605592 138.56 1.91557C138.731 4.99083 136.189 10.1213 135.416 12.7833C132.707 22.1224 130.299 31.51 128.163 40.9957C123.641 61.0717 118.415 81.0332 112.809 100.833C108.78 115.06 103.147 128.904 99.758 143.294C98.6113 148.162 96.1284 154.288 99.5716 158.773C101.501 161.286 104.969 162.505 107.783 163.58C116.875 167.054 126.36 169.494 135.735 172.055C168.141 180.906 203.269 191.309 228.933 214.094C231.251 216.152 238.164 219.807 235.267 220.9C233.844 221.437 229.003 219.859 227.982 219.669C221.617 218.486 215.207 217.567 208.876 216.201C175.006 208.896 141.304 200.884 106.938 196.164C104.931 195.888 95.324 193.136 93.7873 194.502C91.4794 196.553 97.7302 204.535 98.6002 205.862C128.492 251.473 159.094 297.087 193.091 339.778C193.487 340.274 185.435 335.927 184.072 334.965C169.277 324.518 155.109 313.19 140.26 302.801C123.161 290.837 106.256 278.584 89.1121 266.688C75.1288 256.986 60.6849 247.518 44.2063 242.642C41.6523 241.886 36.4348 240.498 34.5807 243.419C29.1049 252.046 27.8426 265.514 25.2588 275.13C20.1987 293.961 14.0064 315.797 3.39844 332.509C0.173215 337.59 5.51295 320.655 6.7029 314.754C9.69807 299.901 12.1468 284.994 13.1292 269.862C14.0399 255.835 15.3136 241.533 14.875 227.467C14.7048 222.011 13.4404 216.198 13.9886 210.8" stroke="#F6E10E" stroke-width="3" stroke-linecap="round"/>
</svg>
